# xmcd CD database file generated by GCD 2.94
# 
# Track frame offsets:
#       182
#       11107
#       23217
#       33842
#       57935
#       80052
#       99285
#       127197
#       142520
#       159285
#       184330
#       205660
#       221635
# 
# Disc length: 3348 seconds
# 
# Revision: 3
# Processed by: cddbd v1.4b41PL1 Copyright (c) Steve Scherf et al.
# Submitted via: GCD 2.94
# 
DISCID=a90d120d
DTITLE=La Banda del Capitán Corneta - Perros Días
DYEAR=1900
DGENRE=
TTITLE0=El Olor
TTITLE1=Malas Caritas
TTITLE2=Wah-Wah Blues
TTITLE3=Vida de Perros
TTITLE4=Cancion para Lucas
TTITLE5=El tiempo pasa
TTITLE6=Armonías de un faraón
TTITLE7=Elena
TTITLE8=Sarna
TTITLE9=Duros Días
TTITLE10=Norte Sur
TTITLE11=Criacuervos
TTITLE12=Huerfanita
EXTD=
EXTT0=
EXTT1=
EXTT2=
EXTT3=
EXTT4=
EXTT5=
EXTT6=
EXTT7=
EXTT8=
EXTT9=
EXTT10=
EXTT11=
EXTT12=
PLAYORDER=
